<?xml version="1.0" standalone="no"?>
<!DOCTYPE svg PUBLIC "-//W3C//DTD SVG 20010904//EN"
 "http://www.w3.org/TR/2001/REC-SVG-20010904/DTD/svg10.dtd">
<svg version="1.0" xmlns="http://www.w3.org/2000/svg"
 width="6.8rem" height="30.6rem" viewBox="0 0 400 255"
 preserveAspectRatio="xMidYMid meet">
<metadata>
Created by potrace 1.13, written by Peter Selinger 2001-2015
</metadata>
<g transform="rotate(90) scale(0.100000,-0.100000)"
fill="#62A8C6" stroke="none">
<path d="M1335 2914 c-8 -8 -12 -21 -8 -29 9 -26 -6 -64 -42 -100 -20 -19 -43
-35 -52 -35 -9 0 -32 -17 -52 -37 -49 -52 -69 -59 -254 -93 -90 -16 -208 -45
-262 -63 -55 -19 -118 -37 -140 -41 -22 -4 -80 -20 -130 -36 -49 -16 -151 -48
-225 -71 -131 -41 -170 -60 -170 -84 0 -14 42 -55 57 -55 18 0 20 -39 6 -115
-18 -100 -16 -164 6 -201 17 -29 99 -84 124 -84 6 0 18 -6 26 -14 14 -13 28
-10 111 25 52 22 145 60 205 85 125 51 395 185 395 197 0 21 -156 -25 -189
-57 -24 -23 -225 -116 -250 -116 -23 0 -9 29 29 64 53 48 221 130 385 188 17
6 56 22 87 35 61 25 158 42 158 27 0 -5 -23 -25 -51 -44 -28 -19 -47 -36 -41
-38 5 -1 44 11 86 28 42 16 86 30 97 30 11 0 30 5 42 12 40 21 250 58 392 68
190 14 623 19 721 8 387 -42 525 -74 670 -153 33 -18 76 -36 95 -40 19 -4 82
-25 140 -47 96 -36 111 -45 151 -91 51 -59 59 -62 253 -111 230 -58 319 -92
651 -253 33 -16 101 -73 201 -171 239 -232 283 -272 300 -272 9 0 24 -7 33
-15 9 -8 36 -25 61 -38 24 -13 75 -40 113 -61 38 -20 76 -34 83 -31 8 3 24 -2
36 -10 12 -8 28 -15 36 -15 8 0 22 -6 30 -13 24 -20 141 -61 181 -63 19 -1 58
-9 85 -18 177 -58 233 -72 385 -96 63 -10 140 -23 170 -30 96 -20 310 -49 480
-65 91 -8 228 -24 305 -34 99 -14 236 -22 465 -27 179 -3 426 -9 550 -13 124
-3 263 -3 310 1 294 24 463 43 528 60 65 17 74 -1 24 -49 -34 -33 -125 -174
-145 -225 -13 -36 14 -27 58 17 30 32 55 48 79 52 19 3 75 29 123 58 54 33 92
50 97 44 13 -11 -33 -127 -129 -324 -75 -155 -116 -261 -119 -305 -1 -18 5
-26 20 -28 15 -2 31 12 64 60 55 79 149 195 185 228 15 14 80 88 145 165 175
209 273 295 315 279 12 -5 35 13 80 61 35 38 69 65 76 63 21 -7 23 -45 5 -92
-23 -62 -39 -196 -25 -212 19 -23 56 -16 82 15 25 31 45 97 72 241 23 124 45
196 66 218 10 11 42 29 71 39 294 107 323 120 355 149 35 34 45 80 18 90 -8 3
-43 -3 -77 -15 -62 -21 -118 -27 -118 -14 0 4 18 25 39 48 22 22 56 67 76 100
35 58 36 63 30 127 -6 61 -4 72 19 111 47 79 32 107 -56 107 -40 0 -58 4 -58
13 0 6 14 39 30 71 32 64 39 126 16 145 -11 10 -23 8 -54 -8 -53 -27 -131 -86
-163 -123 -24 -29 -28 -30 -107 -30 -51 1 -92 6 -110 16 -16 8 -79 28 -141 45
-62 17 -118 34 -124 39 -7 6 -62 24 -122 41 -61 17 -180 56 -265 87 -85 31
-169 58 -187 61 -18 3 -38 11 -44 19 -6 8 -16 14 -21 14 -5 0 -43 16 -84 35
-41 19 -80 35 -87 35 -6 0 -27 9 -45 20 -18 11 -38 20 -44 20 -7 0 -71 29
-144 65 -73 36 -139 65 -147 65 -9 0 -19 5 -22 10 -3 6 -15 10 -26 10 -10 0
-81 23 -156 51 -140 52 -215 69 -226 52 -10 -16 100 -113 128 -113 13 0 44 -9
67 -19 24 -11 63 -26 88 -34 123 -40 357 -132 376 -148 14 -11 13 -14 -6 -24
-20 -10 -20 -13 -6 -18 10 -4 45 -11 79 -17 71 -11 264 -83 287 -107 14 -14
10 -15 -40 -9 -153 19 -187 25 -215 35 -16 6 -111 24 -210 41 -246 42 -330 62
-330 80 0 36 124 34 345 -6 l25 -4 -26 14 c-32 18 -183 49 -349 71 -230 31
-245 34 -295 45 -27 6 -56 17 -65 25 -8 7 -31 21 -51 31 -67 36 -102 59 -151
102 -51 44 -63 49 -73 32 -11 -19 36 -79 88 -114 29 -19 58 -44 64 -55 11 -18
9 -24 -12 -45 -30 -31 -31 -54 -4 -107 24 -47 19 -57 -19 -43 -33 13 -66 3
-76 -23 -9 -23 25 -51 94 -78 28 -11 58 -28 67 -37 29 -32 7 -38 -115 -32
-109 6 -118 5 -135 -14 -17 -19 -17 -22 -2 -51 8 -17 32 -42 53 -56 40 -26 65
-31 327 -70 165 -25 294 -49 345 -66 14 -4 77 -15 140 -24 63 -9 158 -29 210
-45 52 -15 139 -33 192 -39 92 -10 178 -35 178 -50 0 -21 -77 -75 -170 -119
-58 -28 -147 -74 -199 -101 -51 -28 -104 -51 -118 -51 -14 0 -41 -13 -59 -30
-50 -43 -173 -76 -189 -50 -4 6 1 24 9 42 20 39 20 38 -8 38 -17 0 -38 -16
-71 -54 -48 -56 -86 -76 -140 -75 -16 1 -61 -4 -100 -9 -38 -6 -73 -9 -77 -6
-4 2 -112 6 -240 8 -128 2 -241 7 -250 11 -13 5 -18 3 -18 -8 0 -10 18 -19 53
-27 74 -18 82 -23 61 -41 -24 -20 -93 -16 -197 10 -95 25 -108 43 -23 34 29
-3 61 -1 71 5 34 19 -22 37 -120 38 -49 1 -135 6 -190 12 -55 6 -149 14 -210
18 -60 3 -121 12 -135 19 -14 7 -61 22 -105 34 -44 12 -93 28 -110 35 -47 21
-114 40 -121 33 -3 -3 -22 6 -41 19 -20 13 -40 24 -46 24 -17 0 -100 41 -122
61 -24 21 -131 79 -146 79 -6 0 -25 11 -42 24 -18 13 -50 29 -72 36 -22 7 -67
29 -100 49 -116 71 -125 75 -210 110 -67 27 -136 62 -287 147 -134 74 -187 98
-242 110 -39 8 -122 35 -184 59 -61 25 -117 45 -123 45 -6 0 -41 14 -79 30
-71 31 -120 39 -120 18 0 -7 -15 2 -33 20 -39 38 -60 40 -74 10 l-11 -23 -11
27 c-6 17 -16 26 -24 22 -8 -3 -20 2 -27 11 -7 8 -18 15 -25 15 -10 0 -68 34
-135 80 -14 9 -37 21 -50 25 -23 6 -114 60 -181 106 -15 10 -57 34 -95 53 -38
19 -89 55 -114 80 -24 26 -50 46 -56 46 -7 0 -25 6 -41 14 -15 8 -48 20 -73
27 -25 7 -71 21 -103 31 -106 34 -201 50 -321 54 -80 3 -125 9 -135 18 -13 10
-71 12 -284 9 -252 -3 -271 -2 -314 17 -25 11 -53 20 -62 20 -10 0 -26 7 -37
15 -10 8 -27 15 -37 15 -10 0 -28 6 -40 14 -24 16 -140 47 -264 71 -112 23
-408 29 -428 9z m540 -134 c190 -45 193 -61 19 -87 -102 -15 -577 -28 -597
-16 -23 13 85 99 158 125 76 28 251 19 420 -22z m1015 -99 c110 -17 232 -47
345 -86 55 -18 116 -37 135 -41 19 -3 46 -14 60 -24 14 -10 36 -21 50 -25 14
-4 36 -16 50 -25 14 -10 62 -37 107 -60 45 -23 87 -47 93 -55 6 -7 24 -18 40
-25 34 -14 40 -40 10 -40 -11 0 -20 -5 -20 -10 0 -6 -11 -3 -25 6 -14 9 -25
13 -25 9 0 -5 -9 0 -21 11 -17 15 -37 19 -99 19 -43 0 -83 5 -91 12 -23 18
-130 63 -139 58 -5 -3 -32 4 -62 16 -110 44 -301 99 -395 113 -119 18 -423 99
-463 123 -17 9 -30 22 -30 28 0 14 381 11 480 -4z m-797 -126 c168 -23 350
-47 366 -48 8 -1 16 -7 18 -14 3 -9 -102 -12 -439 -11 -346 0 -474 -4 -583
-16 -147 -17 -325 -20 -325 -5 0 12 58 26 185 44 61 9 164 25 230 36 192 31
385 36 548 14z m-1409 -244 c3 -4 -21 -29 -54 -55 -33 -25 -60 -50 -60 -56 0
-5 -55 -59 -122 -121 -102 -92 -124 -108 -126 -91 -4 24 19 72 58 122 15 19
30 47 33 61 7 29 105 106 146 115 14 3 40 11 56 19 35 16 62 19 69 6z m7276
-277 c96 -7 265 -53 302 -84 12 -11 19 -19 13 -20 -17 0 -349 70 -394 83 -25
8 -47 20 -49 27 -3 9 2 11 19 6 13 -4 62 -9 109 -12z m-3325 -129 c54 -10 105
-29 170 -65 52 -27 100 -50 107 -50 14 0 97 -59 159 -114 19 -17 44 -36 55
-43 17 -11 17 -12 2 -12 -25 -1 -216 76 -260 105 -21 13 -46 24 -57 24 -31 0
-286 135 -289 154 -4 20 13 20 113 1z m3565 -40 c47 -8 101 -14 120 -14 34 1
373 -80 384 -92 3 -3 -67 -5 -156 -3 -144 2 -163 4 -166 19 -3 15 -13 17 -60
13 -35 -3 -69 0 -89 8 -18 8 -49 14 -70 14 -66 0 -223 32 -223 46 0 7 6 15 13
17 26 11 165 6 247 -8z m-2945 -163 c193 -101 245 -131 270 -152 11 -10 31
-21 45 -25 14 -4 36 -16 49 -26 29 -23 41 -24 41 -2 0 15 2 15 19 -1 11 -10
25 -31 31 -47 11 -26 14 -27 32 -15 17 12 25 11 61 -2 23 -9 57 -27 75 -39 19
-12 42 -25 53 -28 10 -4 19 -13 19 -22 0 -12 -6 -14 -27 -8 -16 3 -45 9 -66
12 -20 3 -40 9 -43 14 -3 5 -20 9 -38 9 -76 0 -287 78 -361 133 -17 12 -72 54
-123 92 -51 39 -117 87 -145 108 -60 44 -107 87 -107 98 0 12 49 -11 215 -99z
m-409 -251 c89 -44 195 -92 235 -107 41 -15 92 -37 115 -50 22 -13 48 -24 56
-24 8 0 30 -7 49 -16 128 -62 303 -133 379 -155 41 -12 82 -28 91 -35 8 -8 25
-14 37 -14 25 0 72 -20 72 -30 0 -4 -7 -13 -15 -20 -11 -9 -20 -8 -42 8 -15
10 -53 22 -83 26 -97 11 -33 -19 113 -53 208 -50 495 -111 517 -111 25 0 26
-27 2 -34 -10 -4 -37 0 -60 8 -23 8 -75 20 -117 25 -42 6 -85 15 -95 21 -10 5
-36 10 -58 10 -22 0 -62 7 -88 15 -27 8 -95 21 -152 30 -57 8 -117 22 -133 31
-17 8 -38 14 -47 13 -9 -2 -54 9 -99 25 -48 16 -91 25 -103 21 -12 -4 -38 2
-63 14 -53 26 -171 71 -183 71 -5 0 -25 11 -44 24 -19 13 -45 26 -57 30 -31
10 -132 71 -159 97 -13 12 -39 31 -58 43 -46 28 -180 159 -205 201 -22 38 -17
52 13 31 12 -9 94 -51 182 -95z m4154 40 c0 -16 -56 -50 -178 -109 -136 -64
-372 -145 -387 -131 -16 16 14 33 150 89 72 29 189 77 260 106 133 55 155 61
155 45z m240 -115 c-23 -22 -250 -176 -291 -197 -20 -10 -68 -27 -105 -37 -38
-11 -99 -33 -136 -50 -69 -31 -149 -52 -196 -51 l-27 0 24 17 c14 9 59 31 100
48 155 64 387 167 475 211 77 39 148 70 166 72 2 1 -2 -5 -10 -13z m-374 -456
c48 0 42 -17 -13 -43 -40 -17 -71 -21 -185 -24 -90 -2 -139 0 -143 8 -11 16
-3 19 96 34 52 8 108 19 124 24 17 6 43 8 59 6 16 -3 44 -5 62 -5z m-391 -109
c19 -8 19 -8 -5 -16 -14 -4 -47 -9 -75 -11 -27 -2 -92 -8 -144 -14 -52 -6
-103 -9 -113 -7 -10 3 -82 1 -161 -4 -78 -5 -173 -5 -212 -1 -68 8 -69 9 -40
21 63 26 695 53 750 32z"/>
</g>
</svg>
