<?xml version='1.0' encoding='iso-8859-1'?>
<svg version="1.1" xmlns="http://www.w3.org/2000/svg" viewBox="0 0 18.91 18.91" xmlns:xlink="http://www.w3.org/1999/xlink" enable-background="new 0 0 18.91 18.91">
  <g fill-rule="evenodd" fill="rgb(255, 73, 0)">
    <path d="m15.273,4.872c-0.703-0.703-1.514-1.265-2.409-1.672-0.375-0.17-0.822-0.005-0.993,0.372-0.171,0.377-0.005,0.822 0.372,0.993 0.731,0.332 1.394,0.793 1.969,1.368 2.62,2.622 2.62,6.887 0,9.508-1.271,1.269-2.959,1.969-4.755,1.969-1.796,0-3.484-0.699-4.753-1.969-1.271-1.27-1.97-2.958-1.97-4.754 0-1.796 0.7-3.484 1.971-4.755 0.646-0.647 1.401-1.146 2.242-1.485 0.384-0.154 0.571-0.591 0.416-0.976-0.155-0.384-0.592-0.571-0.976-0.415-1.03,0.414-1.953,1.025-2.743,1.816-1.554,1.553-2.41,3.618-2.41,5.815 0,2.196 0.856,4.262 2.409,5.814 1.552,1.553 3.617,2.409 5.814,2.408 2.197,0 4.262-0.855 5.816-2.408 3.204-3.206 3.204-8.422 0-11.629z"/>
    <path d="m9.767,7.045c0.414,0 0.75-0.336 0.75-0.75v-5.545c0-0.414-0.336-0.75-0.75-0.75-0.414,0-0.75,0.336-0.75,0.75v5.545c0,0.414 0.336,0.75 0.75,0.75z"/>
  </g>
</svg>
