<?xml version="1.0" encoding="iso-8859-1"?>
<!-- Generator: Adobe Illustrator 19.1.0, SVG Export Plug-In . SVG Version: 6.00 Build 0)  -->
<svg version="1.1" id="Capa_1" xmlns="http://www.w3.org/2000/svg" xmlns:xlink="http://www.w3.org/1999/xlink" x="0px" y="0px"
	 viewBox="0 0 64.002 64.002" style="enable-background:new 0 0 64.002 64.002;" xml:space="preserve">
<g>
	<g fill="rgb(255, 204, 0)">
		<path d="M32.001,0.001c-8.548,0-16.583,3.329-22.627,9.374C3.329,15.419,0,23.454,0,32.001s3.329,16.582,9.374,22.626
			c6.044,6.045,14.079,9.374,22.627,9.374c8.547,0,16.583-3.329,22.627-9.374c6.045-6.044,9.374-14.079,9.374-22.626
			s-3.329-16.582-9.374-22.626C48.584,3.33,40.548,0.001,32.001,0.001z M53.214,53.213c-5.666,5.667-13.2,8.788-21.213,8.788
			c-8.014,0-15.547-3.121-21.213-8.788C5.121,47.547,2,40.014,2,32.001s3.121-15.546,8.788-21.212
			c5.666-5.667,13.199-8.788,21.213-8.788c8.013,0,15.547,3.121,21.213,8.788c5.667,5.666,8.788,13.199,8.788,21.212
			S58.881,47.547,53.214,53.213z"/>
		<path d="M32.001,8.001c-6.411,0-12.438,2.497-16.97,7.03c-4.534,4.532-7.03,10.56-7.03,16.97s2.496,12.438,7.03,16.97
			c4.532,4.533,10.559,7.03,16.97,7.03c6.41,0,12.438-2.496,16.97-7.03c4.534-4.532,7.03-10.56,7.03-16.97s-2.496-12.438-7.03-16.97
			C44.439,10.497,38.411,8.001,32.001,8.001z M47.557,47.557c-4.156,4.156-9.68,6.444-15.556,6.444
			c-5.877,0-11.401-2.288-15.556-6.444c-4.156-4.156-6.444-9.68-6.444-15.556s2.288-11.4,6.444-15.556
			c4.155-4.156,9.679-6.444,15.556-6.444c5.876,0,11.4,2.288,15.556,6.444s6.444,9.68,6.444,15.556S51.713,43.401,47.557,47.557z"/>
		<path d="M32.001,16.001c-4.273,0-8.292,1.664-11.313,4.687c-3.023,3.021-4.687,7.04-4.687,11.313s1.664,8.292,4.687,11.313
			c3.021,3.023,7.04,4.687,11.313,4.687s8.292-1.664,11.313-4.687c3.023-3.021,4.687-7.04,4.687-11.313s-1.664-8.292-4.687-11.313
			C40.293,17.665,36.274,16.001,32.001,16.001z M41.9,41.9c-2.644,2.645-6.16,4.101-9.899,4.101s-7.255-1.456-9.899-4.101
			s-4.101-6.16-4.101-9.899s1.456-7.255,4.101-9.899s6.16-4.101,9.899-4.101s7.255,1.456,9.899,4.101s4.101,6.16,4.101,9.899
			S44.545,39.256,41.9,41.9z"/>
		<path d="M32.001,24.001c-2.137,0-4.146,0.832-5.656,2.344c-1.512,1.51-2.344,3.519-2.344,5.656s0.832,4.146,2.344,5.656
			c1.51,1.512,3.519,2.344,5.656,2.344s4.146-0.832,5.656-2.344c1.512-1.51,2.344-3.519,2.344-5.656s-0.832-4.146-2.344-5.656
			C36.147,24.833,34.138,24.001,32.001,24.001z M36.243,36.243c-1.134,1.134-2.639,1.758-4.242,1.758s-3.108-0.624-4.242-1.758
			s-1.758-2.639-1.758-4.242s0.624-3.108,1.758-4.242s2.639-1.758,4.242-1.758s3.108,0.624,4.242,1.758s1.758,2.639,1.758,4.242
			S37.377,35.109,36.243,36.243z"/>
	</g>
</g>
<g>
</g>
<g>
</g>
<g>
</g>
<g>
</g>
<g>
</g>
<g>
</g>
<g>
</g>
<g>
</g>
<g>
</g>
<g>
</g>
<g>
</g>
<g>
</g>
<g>
</g>
<g>
</g>
<g>
</g>
</svg>
